<svg width="47" height="114" viewBox="0 0 47 114" fill="none" xmlns="http://www.w3.org/2000/svg">
<path fill-rule="evenodd" clip-rule="evenodd" d="M36.1582 1.74027C41.7961 -1.7834 42.1492 0.683089 41.7969 3.50199C41.4445 6.32106 49.2448 18.824 44.6152 20.0645C40.3867 15.1316 41.0922 38.0362 37.5684 46.8457C34.8869 53.5493 33.8094 56.477 34.3965 57.0645C34.9837 57.7692 36.1579 59.531 36.1582 60.9405C36.1582 62.1734 35.1229 62.5422 33.5351 62.6534C33.194 66.6501 31.1457 68.376 31.293 71.5186C31.4612 75.1066 30.471 77.0994 32.9228 81.7364C35.3742 86.3728 32.0886 94.4988 32.0879 96C32.0879 97.632 34.5868 102.498 34.5879 103C34.5878 103.641 33.383 102 32.0879 100.5C31.5051 99.825 31.0566 98.618 30.8076 97.1973C30.7528 97.8651 30.6701 98.8235 30.5898 100.501C30.4018 104.431 32.5895 106.002 31.7373 107.311C30.7052 104.502 28.9922 104.501 28.9922 98.4463C28.9921 93.138 27.1378 92.3782 28.7812 87.2579C30.4246 82.1375 28.0536 79.0724 25.331 73.6202C23.835 70.6242 23.3959 67.9141 23.4199 65.2539C23.3787 65.2624 23.3375 65.2711 23.2959 65.2793C22.6433 66.2252 22.0317 67.3646 21.6328 68.8194C20.5801 72.6585 21.5258 75.4261 23.0947 79.8174C24.6635 84.2085 25.3156 85.832 24.1914 89.3233C23.1375 92.596 20.3788 94.5881 20.124 98.3194C19.8693 102.05 20.2446 100.575 18.6406 105.82C17.3576 110.016 18.1493 112.819 18.1484 113.757C17.1557 114.321 15.785 108.726 17.168 103.822C19.1427 96.8206 16.2127 96.4879 19.6767 91.3692C23.1407 86.2505 20.9164 82.35 18.873 75.7842C18.6722 75.1388 18.5127 74.5116 18.3896 73.9004C17.307 77.3283 15.4787 78.7869 15.0225 81.711C14.4721 85.2375 13.2772 87.0722 14.4023 91.8858C15.524 96.6863 11.8292 102.528 11.0889 103.699L11.083 103.709C10.4506 104.709 10.5829 106.209 10.6816 106.981C10.8327 108.162 9.05833 106.451 9.55175 104.018C10.0453 101.584 12.271 99.3445 12.2803 95.6416C12.2867 93.0767 11.2827 89.649 11.0635 86.5596C10.1333 87.9652 9.26019 89.3168 8.7705 90.5411C7.36108 94.0647 8.77062 95.8706 8.58983 98.501C8.43508 100.751 7.0898 103.001 6.08983 103.001C4.59089 103.001 7.08987 102.001 7.08983 99.001C7.0898 97.7179 5.21617 92.4065 6.68944 88.253C5.77196 89.1257 4.80809 89.0131 3.96581 89.0489C2.27235 89.121 -1.40961 85.5017 0.569327 86.0899C2.66764 86.7139 3.58001 87.621 5.08983 87.001C6.59958 86.3809 5.48725 77.6858 10.3437 74.8204C10.565 74.6898 10.7753 74.5589 10.9766 74.4307C10.7305 71.93 9.33868 69.7314 10.1807 65.5215C10.2995 64.9271 10.4287 64.3598 10.5644 63.8194C8.69045 64.3031 6.91038 64.3052 6.91015 62.7032C6.91015 60.1661 9.96416 56.7124 11.4912 55.3028C11.3737 51.6615 12.055 42.5464 15.7197 35.2168C19.3844 27.8875 21.7102 22.0615 22.415 20.0645C21.4753 21.3565 19.5967 23.1652 19.5967 20.0645C19.5967 16.1883 30.52 5.26414 36.1582 1.74027ZM31.4863 86.9912C30.9182 89.1146 30.1938 90.8146 30.5898 93.501C30.6052 93.6051 30.6179 93.7053 30.6318 93.8008C30.8429 91.8102 31.7699 89.7194 31.4863 86.9912ZM10.5342 78.9073C10.4235 79.0135 10.317 79.119 10.2168 79.2256C7.95603 81.6297 8.47108 83.9508 7.97655 85.9522C10.0973 83.0005 10.2973 81.0878 10.5342 78.9073ZM15.2734 75.4209C14.9892 75.6151 14.7045 75.8087 14.4209 76C14.4827 76.2633 14.5412 76.5266 14.5889 76.7911C14.8444 76.3337 15.0788 75.8787 15.2734 75.4209ZM14.9336 64.3926C14.4049 65.4186 13.8545 66.5041 13.3516 67.6358C12.6905 69.1232 12.9624 70.7655 13.4346 72.4903C14.5302 71.3721 15.0876 70.2889 15.6387 69.1319C15.5035 67.4433 15.3656 65.9036 15.376 64.625C15.2156 64.5499 15.0686 64.4718 14.9336 64.3926ZM30.2705 62.8145C29.2934 63.0292 28.2738 63.5237 27.0869 64.0362C26.8686 64.958 26.7051 66.007 26.7051 67.2315C26.7051 69.2931 26.9435 70.702 27.4394 72.0713C28.3036 68.7661 30.8009 65.7496 30.2705 62.8145Z" fill="#013555"/>
</svg>
