<svg width="322" height="321" viewBox="0 0 322 321" fill="none" xmlns="http://www.w3.org/2000/svg">
<path fill-rule="evenodd" clip-rule="evenodd" d="M279.43 81.3701C285.556 82.4275 299.425 87.0167 305.889 96.9141C313.969 109.286 320.94 121.975 321.891 153.538C322.841 185.102 317.455 200.488 310.959 213.652C304.463 226.817 288.461 237.602 274.519 237.603H160.603V248.705H238.712V288.993C238.712 295.655 230.885 309.169 210.352 315.006C193.055 319.923 176.763 320.874 160.603 320.874C144.442 320.874 119.726 318.019 107.368 311.675C95.0104 305.33 83.4446 296.289 83.4445 281.38V205.88C83.4446 189.543 91.6122 180.573 94.8517 177.33C98.1788 173.999 110.537 165.435 126.064 165.435H206.074C217.799 165.435 229.681 161.152 237.286 153.062C244.891 144.973 249.327 131.65 249.327 118.326V81.3701H279.43ZM205.282 268.373C197.582 268.373 191.34 274.622 191.34 282.331C191.34 290.04 197.582 296.289 205.282 296.289C212.982 296.289 219.225 290.04 219.225 282.331C219.225 274.623 212.982 268.373 205.282 268.373Z" fill="#1D9BA6"/>
<path fill-rule="evenodd" clip-rule="evenodd" d="M161.398 0C177.558 1.07827e-05 202.274 2.85482 214.632 9.19922C226.99 15.5436 238.556 24.5848 238.556 39.4941V114.994C238.556 131.331 230.388 140.301 227.149 143.544C223.821 146.875 211.463 155.44 195.937 155.44H115.926C104.202 155.441 92.3188 159.722 84.714 167.812C77.1091 175.901 72.673 189.224 72.673 202.548V239.505H42.5704C36.4442 238.447 22.5756 233.857 16.1115 223.96C8.03133 211.588 1.06012 198.899 0.109511 167.336C-0.841105 135.772 4.54527 120.386 11.0412 107.222C17.537 94.057 33.5393 83.2717 47.4816 83.2715H161.398V72.1689H83.2882V31.8809C83.2885 25.2191 91.1156 11.706 111.649 5.86914C128.946 0.952166 145.237 0 161.398 0ZM116.719 24.585C109.019 24.585 102.777 30.8343 102.777 38.543C102.777 46.2516 109.019 52.501 116.719 52.501C124.419 52.5008 130.661 46.2515 130.661 38.543C130.661 30.8344 124.419 24.5852 116.719 24.585Z" fill="#1D9BA6"/>
<path d="M302.391 92.6729C303.698 93.9625 304.883 95.3741 305.889 96.9141C313.969 109.286 320.94 121.975 321.891 153.538C322.617 177.651 319.642 192.321 315.302 203.773H83.4913C84.1522 188.768 91.7543 180.431 94.8517 177.33C98.1788 173.999 110.537 165.435 126.064 165.435H206.074C217.799 165.434 229.681 161.152 237.286 153.062C243.602 146.345 247.728 136.017 248.947 125.077C257.525 123.239 265.391 120.409 272.343 116.403C284.239 109.548 294.152 101.225 302.391 92.6729Z" fill="#00879C"/>
<path d="M38.3927 84.6621C45.0227 85.1682 51.8849 86.5648 58.8263 89.0889C113.281 108.89 185.008 132.515 236.935 126.973C234.384 135.886 229.485 141.205 227.149 143.544C223.821 146.875 211.463 155.44 195.937 155.44H115.926C104.202 155.441 92.3189 159.722 84.714 167.812C77.1091 175.901 72.673 189.224 72.673 202.548V203.773H5.75209C2.71102 194.973 0.601972 183.687 0.109511 167.336C-0.841105 135.772 4.54527 120.386 11.0412 107.222C16.1517 96.8645 27.1465 87.9806 38.3927 84.6621Z" fill="#00879C"/>
<path d="M316.693 118.429C319.494 127.034 321.423 137.998 321.891 153.539C322.841 185.102 317.455 200.487 310.959 213.652C304.463 226.817 288.461 237.603 274.519 237.603H160.603V245.446H83.4445V205.88C83.4445 189.543 91.6123 180.573 94.8517 177.33C98.179 173.999 110.537 165.434 126.064 165.434H206.074C216.787 165.434 227.63 161.857 235.223 155.07C248.068 154.527 260.542 152.39 272.459 148.224C292.468 141.229 306.654 129.656 316.693 118.429Z" fill="#006D8D"/>
<path d="M15.5753 100.18C26.7675 97.6745 40.1924 98.5627 55.7296 104.847C102.901 123.927 156.799 148.219 207.248 153.958C203.757 154.865 199.953 155.44 195.937 155.44H115.926C104.202 155.44 92.3189 159.723 84.714 167.812C77.1093 175.901 72.673 189.224 72.673 202.547V239.504H42.5704C36.4442 238.447 22.5757 233.858 16.1115 223.96C8.03121 211.589 1.06011 198.899 0.109497 167.335C-0.84106 135.772 4.54538 120.387 11.0411 107.222C12.2487 104.775 13.785 102.409 15.5753 100.18Z" fill="#006D8D"/>
<path fill-rule="evenodd" clip-rule="evenodd" d="M129.622 188.839C135.708 176.131 143.697 167.111 201.148 188.839C236.9 202.36 282.987 210.011 318.958 191.653C316.93 200.521 314.073 207.342 310.959 213.653C304.463 226.817 288.461 237.603 274.519 237.603H160.603V248.705H238.712V288.992C238.712 295.654 230.885 309.168 210.352 315.005C193.055 319.922 176.763 320.874 160.603 320.874C144.442 320.874 119.726 318.019 107.368 311.674C95.0102 305.33 83.4444 296.289 83.4444 281.379V205.88C83.4444 189.544 91.6121 180.574 94.8516 177.33C95.054 177.128 95.2898 176.905 95.5577 176.667C111.295 192.286 123.408 201.814 129.622 188.839ZM205.281 268.373C197.581 268.374 191.339 274.623 191.339 282.331C191.339 290.04 197.581 296.289 205.281 296.289C212.981 296.289 219.224 290.04 219.224 282.331C219.224 274.623 212.981 268.373 205.281 268.373Z" fill="#024F78"/>
<path d="M5.28521 121.106C34.1519 114.952 62.8099 143.404 85.753 166.756C85.3986 167.101 85.0518 167.452 84.7139 167.812C77.1091 175.901 72.6729 189.225 72.6729 202.548V239.504H42.5704C36.4442 238.447 22.5756 233.858 16.1114 223.96C8.03118 211.589 1.06009 198.9 0.109424 167.336C-0.534912 145.942 1.73452 131.981 5.28521 121.106Z" fill="#024F78"/>
<path fill-rule="evenodd" clip-rule="evenodd" d="M236.107 179.377C236.688 179.332 236.691 180.096 236.724 180.395C236.768 180.794 236.667 181.627 236.555 182.253C236.314 183.6 235.641 185.01 235.62 185.868C235.577 187.665 235.797 188.235 236.466 189.854C236.595 190.168 236.777 190.627 236.934 191.147C237.001 190.764 237.077 190.361 237.194 189.989C237.327 189.569 237.534 189.026 237.689 188.798C237.806 188.626 238.054 188.161 238.394 188.388C238.419 188.405 238.442 188.423 238.464 188.442C238.502 186.995 239.28 185.734 239.577 184.835C239.935 183.751 240.282 183.187 240.385 182.667C240.498 182.096 240.914 181.308 241.48 181.268C242.048 181.229 242.56 181.506 242.602 182.304C242.643 183.103 242.138 184.11 241.73 184.791C241.345 185.434 240.432 186.902 240.378 187.746C240.324 188.59 240.661 189.729 240.963 190.316C241.368 191.104 241.676 191.855 241.92 192.602C241.959 192.56 241.995 192.513 242.028 192.458C242.196 192.177 242.209 191.326 242.353 190.909C242.647 190.051 242.83 189.289 243.445 190.091C243.876 190.652 243.151 191.222 243.292 192.177L243.299 192.193C243.488 192.676 243.535 192.794 244.383 192.825C245.454 192.864 246.372 192.704 246.604 192.407C246.837 192.11 246.917 191.885 247.157 191.484C247.312 191.226 247.472 190.881 247.771 190.79C247.773 190.733 247.774 190.675 247.772 190.617C247.744 189.415 247.416 188.041 247.56 187.497C247.709 186.933 248.268 186.63 248.951 187.151C249.289 187.409 249.417 188.78 249.512 189.405C249.602 190 249.548 190.791 249.46 191.137C249.634 191.093 250.347 191.021 250.614 190.9C250.971 190.739 251.44 190.313 251.648 190.118C252.075 189.72 252.29 188.878 253.015 189.254C253.739 189.63 253.185 190.386 252.899 190.863C252.248 191.952 251.553 192.286 250.667 192.703C250.142 192.95 249.589 193.086 248.994 193.292C248.922 193.633 248.75 194.172 248.383 194.858C248.365 194.891 248.347 194.923 248.328 194.955C249.712 194.092 251.378 193.423 251.7 193.97C252.404 195.171 251.462 195.694 250.093 196.183C248.866 196.622 246.481 198.568 246.569 199.417C246.658 200.266 247.984 199.708 249.177 199.513C250.64 199.275 252.006 198.67 253.101 197.973C254.195 197.277 255.796 195.96 256.581 195.141C257.366 194.323 258.155 194.194 258.636 194.634C259.116 195.073 258.1 196.197 257.38 197.083C256.615 198.024 251.675 201.581 250.747 201.905C249.818 202.229 245.521 202.813 244.582 202.736C243.643 202.659 241.387 204.006 239.981 204.58C239.545 204.758 239.141 205.045 238.792 205.359C238.545 205.757 238.334 206.128 238.175 206.491C237.915 207.443 237.233 209.62 236.964 210.069C236.695 210.518 235.739 210.102 235.295 209.838C235.41 209.126 235.97 207.246 236.312 206.307C236.844 204.852 237.447 203.772 236.688 203.211C236.263 202.897 235.416 202.092 234.609 201.247C234.43 201.377 234.177 201.512 233.845 201.673C232.991 202.086 231.011 202.656 230.366 202.736C229.722 202.816 229.742 203.684 229.598 204.756C229.505 205.447 229.242 206.787 229.083 207.262C228.727 207.27 228.009 207.194 227.989 206.827C227.97 206.46 228.253 204.895 228.401 204.224C228.421 203.947 228.413 203.647 228.39 203.318C228.278 203.007 228.123 202.693 227.915 202.434C227.242 201.599 226.298 199.999 225.699 199.721C225.101 199.444 222.666 197.603 222.203 197.085C221.741 196.567 219.869 192.69 219.705 191.851C219.551 191.062 219.292 190.026 219.727 189.924C220.162 189.821 220.602 190.172 220.817 190.942C221.033 191.713 221.587 193.07 222.031 193.873C222.476 194.676 223.115 195.517 223.932 196.168C224.597 196.698 225.227 197.496 225.555 197.01C225.882 196.522 225.052 194.51 224.444 193.818C223.766 193.047 223.359 192.404 224.175 191.914C224.548 191.69 225.35 192.674 225.917 193.678C225.916 193.653 225.915 193.627 225.915 193.601C225.912 193.055 225.98 192.666 226.046 192.433C225.749 192.103 225.455 191.829 225.214 191.497C224.807 190.937 224.491 190.492 224.443 189.602C224.423 189.213 224.328 188.56 224.892 188.581C225.455 188.602 225.315 189.189 225.447 189.58C225.512 189.771 225.661 190.193 225.826 190.415C225.951 190.581 226.363 190.872 226.455 190.959C226.513 190.717 226.735 190.215 226.981 189.883C227.241 189.534 227.759 188.742 228.049 188.701C228.634 188.619 228.878 188.997 228.787 189.392C228.7 189.774 228.058 190.499 227.653 191.222C227.634 191.257 227.615 191.293 227.598 191.329C227.75 191.488 227.738 191.753 227.749 191.964C227.766 192.291 227.743 192.456 227.789 192.718C227.836 192.979 228.344 193.394 229.011 193.74C229.538 194.014 229.605 193.958 229.876 193.728L229.886 193.72C230.279 193.187 230.02 192.588 230.464 192.394C231.098 192.118 230.964 192.647 230.867 193.272C230.82 193.576 230.554 194.1 230.566 194.329C230.569 194.375 230.576 194.417 230.587 194.457C230.976 194.085 231.407 193.732 231.908 193.39C232.282 193.136 232.854 192.557 233.093 192.023C233.332 191.489 233.246 190.278 233.218 189.753C233.194 189.312 233.202 188.726 233.346 188.266C232.219 187.616 231.327 187.63 230.854 186.785C230.351 185.887 230.441 185.375 230.838 185.187C231.389 184.926 231.784 185.843 232.188 186.084C232.591 186.324 233.236 186.443 233.52 186.358C234.221 186.149 234.634 184.444 234.924 183.249L234.926 183.24C235.05 182.726 235.025 181.342 235.012 180.662C235.073 180.159 235.415 179.431 236.107 179.377ZM245.834 197.224C245.471 197.48 245.097 197.671 244.411 197.927C243.255 198.356 242.849 198.244 241.962 198.157C241.075 198.07 240.53 198.776 239.958 199.518C239.387 200.259 239.281 201.403 239.252 202.675C239.271 202.699 239.29 202.724 239.308 202.749C240.111 202.47 240.992 202.178 241.376 201.935C242.277 201.365 242.97 200.514 243.576 199.667C244.034 199.027 244.986 198.136 245.834 197.224ZM226.71 195.926C226.934 196.774 227.228 197.646 227.302 198.195C227.399 198.921 227.549 199.679 227.915 200.339C228.071 200.619 228.514 201.102 228.915 201.55C228.935 201.54 228.954 201.531 228.975 201.522C229.366 200.737 229.669 200.003 229.559 199.354C229.448 198.703 229.343 198.085 228.773 197.832C228.203 197.579 227.92 197.506 227.353 196.845C227.016 196.452 226.849 196.207 226.71 195.926ZM230.832 195.911C230.604 196.24 230.227 196.955 230.032 197.288C229.777 197.724 230.139 198.351 230.247 198.557C230.345 198.744 230.717 198.992 230.729 199.457C230.742 199.922 230.73 200.823 230.667 201.032C230.64 201.12 230.614 201.208 230.59 201.293C231.242 201.249 231.53 200.93 232.167 200.628C232.895 200.283 232.69 200.093 232.662 199.566C232.629 198.943 232.393 198.784 232.229 198.132C232.067 197.492 231.777 197.071 231.506 196.736C231.257 196.429 231.066 196.167 230.832 195.911ZM240.643 194.263C240.176 194.42 239.76 194.615 239.241 194.826C238.676 195.056 238.03 195.378 237.4 196.07C236.759 196.776 236.356 196.809 235.899 197.571C235.513 198.216 235.13 198.31 235.818 199.264C236.422 200.101 236.572 200.71 237.367 201.23C237.393 201.105 237.419 200.975 237.444 200.845C237.504 200.535 238.089 199.389 238.414 198.812C238.74 198.235 239.373 198.188 239.62 198.022C239.894 197.839 240.769 197.305 240.736 196.573C240.712 196.013 240.711 194.841 240.643 194.263ZM235.157 195.788C234.825 196.068 234.529 196.364 234.324 196.617C234.661 196.359 234.995 196.063 235.144 195.815C235.149 195.807 235.152 195.797 235.157 195.788ZM234.62 189.668C234.6 189.904 234.575 190.184 234.519 190.523C234.388 191.308 234.518 192.656 233.696 193.638C232.875 194.621 232.204 194.748 231.969 194.915C231.878 194.979 231.674 195.132 231.463 195.304C231.532 195.368 231.601 195.438 231.668 195.518C232.043 195.966 232.24 196.031 232.494 196.419C232.635 196.634 233.078 196.726 233.33 196.268C233.715 195.571 234.429 194.964 234.802 194.66C235.225 194.315 235.519 194.068 235.769 193.8C235.79 193.664 235.811 193.528 235.827 193.392C235.903 192.755 235.367 190.963 234.62 189.668ZM227.162 193.671C227.202 194.2 227.591 194.718 227.795 195.17C228.056 195.749 228.488 196.052 229.034 196.261C229.33 195.863 229.624 195.49 229.936 195.136C229.556 194.864 229.294 194.73 229.06 194.658C228.215 194.397 228.038 194.353 227.294 193.779C227.247 193.743 227.203 193.706 227.162 193.671ZM243.71 193.949C243.367 193.873 242.948 193.855 242.289 193.928C242.447 194.596 242.569 195.276 242.677 195.99C243.505 196.115 244.253 196.04 244.968 195.496C245.525 195.071 246.361 194.695 246.764 194.056C246.687 194.073 246.607 194.087 246.522 194.099C245.202 194.293 244.949 194.222 243.71 193.949ZM238.605 189.629C238.368 190.059 237.955 190.819 237.871 191.155L237.869 191.161C237.661 191.991 237.365 193.174 237.726 193.544C237.8 193.62 237.95 193.696 238.122 193.752C238.151 193.743 238.179 193.733 238.205 193.72C238.784 193.411 239.077 193.472 239.848 193.174C239.986 193.12 240.12 193.08 240.25 193.049C240.098 192.681 239.943 192.342 239.871 192.197C239.695 191.839 239.003 191.245 238.605 189.629Z" fill="#035079"/>
<path d="M219.946 170.196C220.898 170.196 221.791 171.038 222.305 171.504C222.834 172.03 223.346 173.138 223.393 173.547C223.483 174.344 222.984 174.989 221.941 174.989C220.899 174.989 220.944 173.939 220.989 173.578C221.092 172.761 221.579 172.585 221.941 172.405C222.104 172.324 222.23 171.739 221.578 171.504C221.079 171.323 220.671 170.331 219.13 170.782C218.136 171.073 217.369 172.829 216.959 174.16C219.758 174.942 220.805 176.93 219.946 177.636C217.871 177.545 216.393 181.228 215.955 182.37C216.197 182.205 217.169 181.945 218.449 181.062C220.41 179.71 219.957 180.146 220.41 180.161C220.773 180.417 221.66 181.848 219.946 182.956C218.551 183.858 216.907 186.789 213.688 186.338C213.168 186.265 212.666 186.147 212.186 185.997C211.865 186.456 211.477 186.936 211.477 187.33C211.476 188.096 210.297 188.186 209.39 187.33C208.483 186.473 208.156 185.391 208.02 183.722C207.322 183.186 206.757 182.681 206.345 182.328C206.197 182.533 205.96 182.778 205.581 183.092C204.765 183.768 204.124 184.592 203.258 183.362C202.553 182.361 203.095 181.508 203.664 181.114C203.324 180.965 203.001 180.788 202.74 180.569L201.807 181.874C201.036 182.505 200.031 181.511 199.766 181.062C199.312 180.296 199.176 178.222 199.357 177.365C199.503 176.68 200.037 175.351 200.31 175.02C200.461 175.02 200.972 175.219 201.807 176.012C202.748 176.908 202.322 177.289 202.998 177.852C203.397 177.469 203.916 176.998 204.527 176.328C204.552 176.301 204.577 176.274 204.603 176.248C204.301 176.054 203.964 175.897 203.62 175.832C202.668 175.651 202.985 174.84 203.62 174.209C204.484 173.35 205.399 173.262 206.261 173.848C206.892 174.278 207.011 174.504 207.054 174.781C209.173 174.008 212.043 173.728 214.912 173.848C215.478 173.872 216.001 173.939 216.479 174.042L216.727 173.578C216.847 173.187 217.379 172.315 217.814 171.594C218.359 170.692 219.13 170.196 219.946 170.196Z" fill="#035079"/>
<path d="M276.516 157.798C278.023 157.798 279.259 158.146 280.059 159.019C280.815 159.846 280.952 160.907 280.952 161.806V166.4H287.704V166.44C288.008 166.414 288.315 166.4 288.625 166.4C294.558 166.4 299.368 171.215 299.368 177.155C299.368 183.095 294.558 187.911 288.625 187.911C288.315 187.911 288.008 187.897 287.704 187.871V187.911H277.882V187.906C277.78 187.909 277.678 187.911 277.575 187.911C271.642 187.911 266.832 183.095 266.832 177.155C266.832 171.679 270.921 167.158 276.209 166.486C276.197 165.812 276.184 165.12 276.169 164.475C276.148 163.555 276.128 162.719 276.114 162.192H273.604C272.916 162.192 272.357 161.687 272.356 161.063V158.927C272.357 158.303 272.916 157.798 273.604 157.798H276.516Z" fill="#035079"/>
<path d="M303.255 170.705C303.82 170.705 304.277 171.177 304.277 171.759V182.557C304.277 183.139 303.82 183.611 303.255 183.611H302.231C301.666 183.611 301.208 183.139 301.208 182.557V171.759C301.208 171.177 301.666 170.705 302.231 170.705H303.255Z" fill="#035079"/>
<path d="M173.988 165.434C173.588 166.524 173.231 167.343 173.082 167.594C172.627 168.357 168.934 171.622 166.746 172.227C164.559 172.833 163.253 173.03 164.331 170.014C164.757 168.824 164.939 167.163 165.06 165.434H173.988Z" fill="#035079"/>
<path d="M152.78 116.42C154.022 116.603 155.225 117.66 156.946 117.572C158.668 117.484 167.581 118.263 173.79 119.179C179.999 120.096 193.974 123.854 198.655 125.817C203.336 127.781 207.288 131.021 208.973 131.636C211.331 132.496 213.037 133.044 212.842 134.041C212.692 134.805 211.637 134.596 211.195 135.605C210.754 136.615 204.826 138.455 199.716 137.673C194.606 136.89 193.361 137.376 191.826 137.639C190.411 137.882 187.646 137.853 181.973 139.49C179.498 140.204 177.387 140.623 175.517 140.865C175.379 143.018 174.88 144.834 174.991 147.014C175.167 150.459 175.734 151.911 175.317 153.413C175.068 154.312 175.057 154.668 175.173 155.44H166.26C166.268 155.066 166.262 154.704 166.245 154.37C166.182 153.139 165.616 151.688 164.854 151.233C164.091 150.779 164.545 150.015 164.753 149.264C164.961 148.514 164.516 147.796 164.503 147.55C164.49 147.303 164.388 146.931 165.062 145.663C165.737 144.395 167.206 144.203 167.118 142.48C167.097 142.074 166.996 141.636 166.863 141.204C164.5 141.359 161.406 141.832 157.21 142.506C156.727 143.198 156.132 143.782 155.601 143.809C154.372 143.873 154.717 145.829 152.813 147.16C150.91 148.491 150.467 149.5 146.534 149.701C142.601 149.902 138.506 146.904 137.976 146.19C137.446 145.477 137.9 144.713 139.129 144.65C139.872 144.612 140.758 143.847 141.828 143.168C133.534 141.707 124.307 138.035 120.015 137.719C114.077 137.282 106.231 136.363 104.286 136.946C101.616 137.747 101.903 136.287 102.581 138.205C106.088 148.13 103.773 150.117 103.32 152.713C102.868 155.308 100.85 157.02 100.226 157.295C99.6019 157.569 99.6044 155.349 99.9561 153.33C100.308 151.311 99.2896 147.232 97.4229 143.615L97.3701 143.511C95.5347 139.955 94.3896 137.738 92.1426 136.441C89.8743 135.132 87.582 132.857 86.5586 133.219C85.5351 133.58 81.9688 133.109 85.1387 131.447C87.6753 130.118 93.7945 131.794 98.7295 132.541C103.883 131.026 113.733 126.689 119.337 124.428C126.341 121.603 135.841 119.39 139.517 118.956C143.192 118.521 141.95 118.338 142.195 118.325C142.442 118.312 143.821 117.618 147.164 117.447C150.605 117.271 151.539 116.237 152.78 116.42Z" fill="#035079"/>
<path fill-rule="evenodd" clip-rule="evenodd" d="M282.768 103.518C283.329 103.456 285.451 103.388 287.354 104.491C289.536 105.756 291.662 107.929 292.4 110.012C292.995 111.69 292.806 115.456 290.959 117.554C289.532 119.176 287.511 120.369 286.716 119.326C286.64 119.226 286.57 119.142 286.508 119.07C286.337 119.256 286.158 119.454 285.971 119.665C285.95 119.688 285.93 119.713 285.909 119.736C285.548 120.24 285.122 120.913 284.775 121.468C284.339 122.165 284.089 122.635 283.836 123.321C283.708 123.669 283.582 124.067 283.439 124.496C283.298 124.921 283.14 125.371 282.956 125.809C282.587 126.687 282.114 127.483 281.576 128.152C281.038 128.821 280.453 129.334 279.99 129.704C279.629 129.993 279.325 130.206 279.034 130.378C278.309 131.382 277.742 132.01 277.348 132.397C276.255 133.471 275.143 133.836 274.471 134.05C274.334 134.093 274.174 134.133 273.984 134.174C273.824 134.344 273.649 134.515 273.449 134.7C272.554 135.526 271.16 136.633 270.123 137.371C269.08 138.113 268.43 138.456 267.646 138.76C267.526 138.806 267.401 138.852 267.276 138.896C266.706 139.799 265.961 140.853 265.085 141.735C264.13 142.696 263.053 143.41 261.771 144.192C261.661 144.259 261.517 144.224 261.45 144.114C261.383 144.004 261.418 143.86 261.527 143.793C262.805 143.013 263.841 142.325 264.754 141.406C265.445 140.711 266.056 139.899 266.563 139.139C266.525 139.152 266.487 139.164 266.449 139.177C266.051 139.307 265.674 139.428 265.353 139.549C264.716 139.787 264.319 140.013 263.897 140.254C263.786 140.317 263.643 140.279 263.579 140.167C263.515 140.055 263.554 139.912 263.666 139.848C263.984 139.667 264.301 139.486 264.722 139.301C264.317 139.441 263.625 139.611 263.452 139.371C263.264 139.11 263.366 138.839 263.44 138.736C263.351 138.86 263.197 139.062 263.038 139.257C263.019 139.813 262.995 140.018 262.969 140.227C262.953 140.355 262.836 140.446 262.708 140.43C262.58 140.414 262.49 140.298 262.506 140.17C262.52 140.056 262.532 139.943 262.545 139.759C262.389 139.844 262.215 139.817 262.044 139.787L261.472 140.581L261.675 139.764C261.661 139.767 261.647 139.77 261.633 139.774C261.33 139.868 260.86 139.216 260.628 139.049C260.396 138.882 259.492 139.321 259.34 139.368C259.188 139.415 258.587 139.761 258.059 140.005C257.7 140.17 257.548 140.195 257.321 140.173C257.168 140.479 257.034 140.761 256.92 141.01C256.497 141.929 256.379 142.341 256.051 143.18C255.726 144.012 255.205 145.227 254.672 146.473C254.621 146.592 254.484 146.647 254.365 146.596C254.247 146.546 254.192 146.408 254.242 146.29C254.777 145.041 255.294 143.833 255.616 143.011C255.934 142.197 256.066 141.749 256.496 140.813C256.594 140.601 256.706 140.366 256.831 140.112C256.329 140.103 255.886 140.58 256.31 140.147C256.512 139.941 256.792 139.792 257.053 139.671C257.452 138.89 257.956 137.979 258.538 137.053C259.436 135.624 260.471 134.182 261.099 133.407C261.123 133.377 261.147 133.347 261.171 133.318C259.885 134.052 258.551 134.425 256.914 134.772L256.91 134.773C256.202 134.909 255.864 134.936 255.299 134.95C255.17 134.953 255.063 134.851 255.06 134.722C255.057 134.594 255.159 134.486 255.288 134.483C255.829 134.47 256.141 134.445 256.822 134.314C257.272 134.219 257.696 134.121 258.099 134.016C258.046 133.942 258.04 133.841 258.091 133.759C258.427 133.218 258.759 132.684 259.13 132.172C259.503 131.656 259.905 131.176 260.548 130.575C261.192 129.973 262.05 129.274 263.711 128.243C263.924 128.11 264.15 127.973 264.385 127.832C264.692 126.995 264.961 126.41 265.4 125.666C265.92 124.787 266.628 123.667 267.512 122.669C268.374 121.695 269.081 120.922 269.652 120.346C270.218 119.776 270.667 119.383 271.011 119.188C271.486 118.919 271.899 118.687 272.318 118.418C273.176 117.126 274.05 115.873 274.75 114.912C274.295 115.398 273.83 115.767 273.294 116.257C272.774 116.732 272.061 117.119 271.362 117.43C270.664 117.741 269.96 117.984 269.45 118.164C269.082 118.312 265.56 120.11 265.365 119.803C265.039 119.282 268.926 117.871 269.281 117.728L269.29 117.725C269.805 117.544 270.492 117.306 271.173 117.003C271.856 116.698 272.515 116.336 272.979 115.912C273.914 115.059 274.547 114.638 275.287 113.429C275.797 112.596 275.939 111.898 276.124 110.915C275.429 110.754 275.003 110.512 274.992 109.293C274.98 107.879 276.533 105.724 278.396 104.572C280.258 103.421 282.206 103.581 282.768 103.518ZM262.998 132.141C262.393 132.63 261.924 133.13 261.462 133.701C260.848 134.459 259.823 135.885 258.933 137.302C258.513 137.969 258.135 138.629 257.809 139.236C258.057 139.033 258.735 138.775 258.873 138.875C259.028 138.985 259.472 138.369 259.617 138.006C259.762 137.642 260.448 137.668 261.282 137.489C262.116 137.311 262.21 138.159 262.506 137.749C262.533 137.712 262.565 137.682 262.601 137.659C262.613 136.627 262.626 135.368 262.646 134.553C262.659 134.008 262.676 133.645 262.728 133.294C262.778 132.948 262.861 132.619 262.998 132.141ZM266.178 138.526C266.051 138.702 265.608 138.929 265.228 139.097C265.552 138.978 265.926 138.857 266.304 138.733C266.525 138.661 266.748 138.586 266.968 138.51C266.986 138.479 267.005 138.449 267.023 138.42L267.024 138.418C266.831 138.301 266.565 137.99 266.622 137.91L266.178 138.526ZM272.607 134.418C272.45 134.634 272.27 134.874 272.049 135.112C271.631 135.56 270.722 136.028 270.319 136.206C270.27 136.274 270.125 136.442 269.945 136.561C269.72 136.71 269.263 136.693 269.186 136.637C269.108 136.582 268.811 136.993 268.444 137.665C268.361 137.818 268.256 137.939 268.144 138.037C268.637 137.799 269.149 137.491 269.853 136.99C270.877 136.261 272.255 135.166 273.133 134.356C273.144 134.346 273.154 134.337 273.165 134.327C272.995 134.356 272.81 134.385 272.607 134.418ZM265.403 136.891C265.17 137.034 264.934 137.158 264.701 137.299C263.94 137.756 263.751 137.62 263.588 137.646C263.56 137.651 263.526 137.675 263.487 137.716C263.693 137.784 263.871 137.855 263.955 137.858C264.15 137.866 264.947 137.512 265.403 136.891ZM265.826 130.232C265.29 130.597 264.779 130.941 264.232 131.277C264.014 131.411 263.811 131.544 263.621 131.676C263.56 131.879 263.503 132.069 263.454 132.24C263.314 132.73 263.236 133.042 263.189 133.362C263.142 133.683 263.126 134.021 263.112 134.564C263.095 135.255 263.084 136.249 263.074 137.162L263.226 136.952C263.84 136.1 264.586 136.063 265.021 135.658C265.457 135.252 266.434 132.503 266.639 132.219C266.836 131.944 266.765 130.01 267.125 129.359C266.657 129.666 266.234 129.955 265.826 130.232ZM267.779 135.35C267.297 135.538 266.88 135.706 266.535 135.857C266.487 135.926 266.439 135.991 266.39 136.052C266.67 136.066 266.931 136.179 267.044 136.183C267.266 136.192 267.693 135.76 267.779 135.35ZM270.557 127.235C270.367 127.363 270.168 127.489 269.968 127.615C269.851 127.8 269.694 127.967 269.479 128.079C268.787 128.442 268.686 129.377 268.55 129.567C268.413 129.757 268.556 131.156 268.241 131.793C267.989 132.302 267.68 132.636 267.558 132.739C267.542 133.148 267.393 134.194 266.922 135.187C267.342 135.016 267.822 134.831 268.353 134.63C268.355 134.629 268.358 134.628 268.36 134.627C268.432 134.602 268.511 134.581 268.596 134.559C268.675 134.514 268.756 134.471 268.836 134.43C268.89 134.225 268.946 133.999 269.005 133.745C269.271 132.588 269.564 130.942 269.76 130.019C269.977 128.993 270.249 128.403 270.664 127.162C270.628 127.186 270.593 127.211 270.557 127.235ZM282.82 117.116C282.463 117.43 282.37 117.849 282.196 118.524C282.023 119.199 281.628 119.495 281.451 119.558C281.195 119.611 280.663 119.818 280.583 120.218C280.484 120.718 279.904 121.158 279.394 121.504C278.883 121.849 278.92 122.163 278.55 123.039C278.18 123.915 277.429 124.23 277.157 124.606C276.886 124.982 276.27 125.11 275.999 125.486C275.863 125.675 274.914 126.99 274.969 127.459C275.084 128.446 273.934 128.713 273.392 129.465C272.849 130.216 272.334 129.844 271.854 129.783C271.375 129.723 270.728 130.257 270.457 130.633C270.355 130.774 270.201 130.859 270.06 130.893C269.882 131.801 269.661 132.98 269.46 133.85C269.434 133.965 269.406 134.074 269.381 134.178C269.544 134.141 269.589 134.264 269.616 134.377C269.691 134.366 269.769 134.354 269.848 134.344C269.866 134.341 269.885 134.339 269.904 134.337C270.349 133.723 270.95 133.376 271.695 132.668C272.443 131.958 272.9 131.975 273.122 131.667C273.344 131.358 273.104 130.716 274.012 130.434C274.92 130.153 275.123 128.893 275.642 128.174C276.16 127.455 276.228 127.034 277.346 125.81C278.367 124.691 279.08 124.002 279.542 123.785C279.985 123.046 280.407 122.362 280.788 121.759C280.901 121.555 281.024 121.361 281.137 121.205L281.188 121.136C281.506 120.642 281.783 120.223 282.008 119.898C282.248 119.552 282.514 119.252 282.804 118.972C282.816 118.93 282.83 118.886 282.842 118.842C282.934 118.502 283.763 117.772 284.393 117.268C284.045 117.324 283.491 117.415 282.931 117.055C282.892 117.076 282.855 117.098 282.82 117.116ZM263.957 128.639C262.317 129.657 261.485 130.339 260.866 130.917C260.247 131.495 259.864 131.952 259.507 132.445C259.172 132.907 258.87 133.389 258.558 133.891C259.5 133.619 260.337 133.282 261.156 132.785C261.717 132.419 262.472 131.91 263.234 131.339C263.502 130.457 263.846 129.382 264.14 128.527C264.078 128.565 264.017 128.602 263.957 128.639ZM274.217 133.084C273.914 133.178 273.463 133.477 273.164 133.729C273.115 133.77 273.067 133.821 273.018 133.878C273.304 133.83 273.543 133.787 273.744 133.747C273.94 133.531 274.116 133.308 274.298 133.045C274.267 133.063 274.24 133.077 274.217 133.084ZM278.018 130.859C277.469 131.07 276.561 131.368 275.779 131.704C275.72 131.729 275.662 131.755 275.605 131.78C275.161 132.575 274.842 133.105 274.514 133.545C275.167 133.33 276.099 132.968 277.021 132.063C277.294 131.795 277.661 131.398 278.117 130.819C278.084 130.832 278.051 130.846 278.018 130.859ZM284.992 119.771C284.755 120.099 284.438 119.996 284.31 119.903C284.11 120.071 283.743 120.461 283.868 120.678C284.026 120.948 283.581 121.565 283.06 122.126C282.538 122.686 282.467 122.947 282.325 123.47C282.183 123.992 281.578 124.18 281.134 124.797C280.689 125.413 280.757 124.994 279.933 125.648C279.108 126.303 279.653 126.07 279.188 126.515C279.008 126.689 278.666 127.078 278.229 128.011C277.79 128.944 277.78 128.469 277.483 128.88C277.187 129.29 277.193 129.607 276.965 129.598C276.898 129.596 276.826 129.63 276.751 129.686C276.472 130.2 276.21 130.685 275.971 131.121C276.668 130.843 277.42 130.589 277.851 130.423C278.163 130.302 278.434 130.182 278.714 130.023C279.075 129.518 279.478 128.917 279.917 128.201C280.316 127.551 280.754 126.798 281.221 126.004C281.686 125.211 282.18 124.377 282.683 123.57C283.656 122.009 284.602 120.528 285.544 119.445C285.647 119.302 285.744 119.171 285.835 119.059C285.928 118.945 286.029 118.834 286.135 118.727C286.034 118.664 285.944 118.631 285.842 118.592L284.992 119.771ZM267.417 126.613C266.539 127.112 265.603 127.648 264.767 128.147C264.724 128.266 264.68 128.391 264.635 128.522C264.398 129.205 264.121 130.058 263.876 130.843C264.254 130.541 264.62 130.229 264.951 129.918C265.985 128.945 266.664 127.997 267.399 126.75C267.405 126.704 267.411 126.658 267.417 126.613ZM281.582 115.027C281.368 115.223 281.13 115.451 280.862 115.715C279.92 116.643 278.773 118.334 278.052 119.326C277.351 120.288 277.19 120.564 276.601 121.344C276.007 122.128 274.973 123.429 274.317 124.211C273.561 125.112 272.645 125.811 271.293 126.736C271.248 126.879 271.205 127.017 271.162 127.146C270.729 128.462 270.472 129.008 270.26 129.926C270.417 129.693 270.577 129.48 270.705 129.383C270.994 129.163 271.862 128.503 272.256 128.501C272.744 128.498 272.848 127.499 273.119 127.123C273.39 126.747 273.679 126.526 274.086 125.962C274.493 125.398 274.661 124.804 274.932 124.428C275.203 124.052 275.885 123.83 276.328 123.578C276.771 123.326 277.45 122.387 277.481 121.98C277.513 121.574 277.557 120.605 278.117 120.01C278.91 119.167 279.261 119.62 279.479 118.847C279.646 118.253 280.31 117.875 280.514 117.594C280.717 117.311 280.823 116.5 280.829 116.249C280.838 115.874 281.286 115.374 281.727 115.098C281.683 115.07 281.635 115.047 281.582 115.027ZM267.35 127.726C266.914 128.406 266.465 129.012 265.92 129.603C266.348 129.313 266.805 129.006 267.318 128.678C267.34 128.403 267.344 128.073 267.35 127.726ZM283.078 123.818C282.579 124.619 282.09 125.448 281.624 126.241C281.159 127.032 280.717 127.79 280.314 128.445C280.138 128.732 279.967 129.002 279.803 129.255C280.232 128.904 280.744 128.443 281.214 127.859C281.723 127.227 282.173 126.469 282.526 125.629C282.704 125.208 282.855 124.771 282.996 124.348C283.094 124.055 283.188 123.765 283.28 123.495C283.213 123.602 283.146 123.71 283.078 123.818ZM271.24 119.595C270.958 119.755 270.549 120.105 269.982 120.676C269.421 121.241 268.721 122.006 267.86 122.978C267.006 123.942 266.317 125.032 265.802 125.903C265.48 126.447 265.255 126.9 265.033 127.447C265.86 126.961 266.747 126.456 267.56 125.994C267.649 125.746 267.777 125.539 267.961 125.398C268.098 125.293 268.212 125.209 268.305 125.144C268.481 124.824 268.665 124.491 268.857 124.142C269.043 123.679 269.504 122.573 269.945 121.647C270.193 121.128 270.659 120.655 271.149 120.223C271.338 119.924 271.531 119.62 271.729 119.316C271.571 119.407 271.409 119.499 271.24 119.595ZM271.646 124.033C271.409 124.222 271.172 124.393 270.901 124.573C270.766 124.809 270.704 125.054 270.688 125.208C270.577 125.56 270.348 126.316 270.314 126.522C270.303 126.595 270.284 126.723 270.251 126.877C270.266 126.867 270.281 126.857 270.296 126.847C270.505 126.707 270.705 126.572 270.895 126.443C271.13 125.677 271.4 124.74 271.646 124.033ZM280.323 114.718C279.397 115.607 278.289 116.831 277.465 117.813C276.647 118.789 276.118 119.523 275.259 120.487C274.42 121.429 273.265 122.589 272.396 123.384C272.327 123.546 272.261 123.71 272.197 123.878C271.979 124.453 271.74 125.258 271.512 126.017C272.59 125.26 273.335 124.656 273.961 123.91C274.611 123.135 275.639 121.841 276.228 121.062C276.819 120.28 276.953 120.042 277.674 119.051C278.374 118.088 279.556 116.346 280.534 115.382C280.713 115.205 280.88 115.044 281.036 114.897C280.848 114.859 280.624 114.811 280.356 114.73C280.345 114.727 280.334 114.721 280.323 114.718ZM278.248 116.16C277.234 117.168 275.698 118.817 274.69 119.97C274.337 120.374 274.036 120.739 273.777 121.077C273.671 121.259 273.544 121.424 273.422 121.56C273.287 121.752 273.166 121.935 273.056 122.113C273.697 121.482 274.371 120.783 274.911 120.177C275.771 119.212 276.259 118.524 277.107 117.512C277.56 116.973 278.099 116.36 278.647 115.768C278.524 115.887 278.392 116.017 278.248 116.16ZM272.654 118.755C272.566 118.887 272.479 119.02 272.392 119.153C272.531 119.02 272.651 118.893 272.739 118.77C272.776 118.719 272.816 118.67 272.855 118.62C272.788 118.666 272.721 118.711 272.654 118.755ZM273.412 117.628C273.486 117.568 273.562 117.507 273.64 117.443C273.796 117.313 273.973 117.16 274.168 116.994C274.203 116.785 274.259 116.542 274.34 116.29C274.043 116.712 273.729 117.162 273.412 117.628ZM279.385 113.884C279.224 114.102 279.075 114.316 278.984 114.5C278.732 115.009 278.064 115.178 277.829 115.104C277.635 115.108 277.554 115.016 277.556 115.483C277.559 116.205 277.098 116.447 277.123 116.61C277.124 116.618 277.123 116.629 277.121 116.641C277.407 116.345 277.677 116.069 277.919 115.829C278.738 115.015 279.216 114.593 279.704 114.279C279.587 114.155 279.479 114.018 279.385 113.884ZM276.789 113.101C276.553 113.334 276.267 113.674 275.849 114.22C275.979 114.127 276.085 114.066 276.153 114.037C276.362 113.947 276.803 113.614 276.903 112.996L276.904 112.993C276.867 113.026 276.829 113.062 276.789 113.101ZM276.539 111.233C276.372 112.105 276.2 112.825 275.695 113.656C276.008 113.258 276.249 112.977 276.461 112.768C276.636 112.596 276.793 112.472 276.951 112.37C276.758 112.011 276.63 111.577 276.539 111.233Z" fill="#035079"/>
<path fill-rule="evenodd" clip-rule="evenodd" d="M30.2627 94.9802C30.8364 94.0752 31.6169 94.0906 32.2539 94.5105C32.8909 94.9306 32.8579 96.126 32.6143 96.867C32.3923 97.5422 32.4261 98.429 32.1309 99.9304C31.8355 101.432 32.0166 104.012 30.3672 105.891C28.7176 107.771 27.4078 108.016 26.9414 108.335C26.7621 108.457 26.3579 108.75 25.9375 109.079C26.0691 109.201 26.2007 109.337 26.3271 109.491C27.0316 110.348 27.4123 110.47 27.8857 111.213C28.1489 111.625 29.0037 111.799 29.5176 110.925C30.3021 109.589 31.7217 108.428 32.4629 107.846C34.3109 106.397 34.9429 105.877 36.0752 103.749C36.6157 102.733 36.7578 100.644 37.3633 98.9109C37.6444 98.1064 38.0745 97.0676 38.3887 96.6306C38.6243 96.3029 39.1309 95.4116 39.7793 95.8474C40.5526 96.3673 40.4722 97.4431 40.2129 98.0711C39.7496 98.8565 38.809 100.457 38.6162 101.139L38.6123 101.151C38.164 102.739 37.5259 105.003 38.208 105.71C38.4845 105.996 39.3155 106.282 39.9453 106.267C40.5755 106.253 41.6398 105.443 42.1123 106.111C42.4528 106.593 42.2202 107.251 41.041 107.968C39.8621 108.684 38.7708 107.956 36.8193 108.062C35.8447 108.116 34.4802 108.913 33.2998 109.84C33.2667 110.224 33.1907 110.705 33.1084 111.098C32.8471 112.346 32.1783 113.65 32.1367 114.444C32.0498 116.107 32.2421 116.634 32.8301 118.133C33.0659 118.734 33.5003 119.913 33.4902 120.982C33.4836 121.682 34.0612 121.868 34.3682 121.71C34.9206 121.424 35.1941 121.479 35.9268 121.203C36.0574 121.154 36.1842 121.117 36.3066 121.089C36.1728 120.748 36.0363 120.435 35.9727 120.301C35.8073 119.951 35.1076 119.359 34.7939 117.67C34.4803 115.98 35.5195 114.49 35.8838 113.487C36.2479 112.485 36.589 111.963 36.6992 111.482C36.8201 110.954 37.2311 110.224 37.7656 110.187C38.3002 110.151 38.7746 110.408 38.793 111.146C38.8112 111.885 38.3109 112.817 37.9102 113.447C37.5312 114.043 36.6345 115.401 36.5625 116.181C36.4905 116.962 36.7778 118.016 37.0469 118.559C37.4079 119.289 37.6786 119.985 37.8887 120.677C37.927 120.637 37.9632 120.593 37.9961 120.541C38.1613 120.281 38.1955 119.494 38.3408 119.108C38.6401 118.314 38.8311 117.608 39.3896 118.35C39.7804 118.87 39.0846 119.397 39.1924 120.28L39.1982 120.296C39.3643 120.743 39.4049 120.852 40.2012 120.881C41.2084 120.917 42.0763 120.768 42.3027 120.493C42.529 120.218 42.6106 120.011 42.8467 119.639C42.9982 119.401 43.1578 119.083 43.4404 118.998C43.4432 118.945 43.4451 118.891 43.4453 118.837C43.449 117.725 43.1752 116.453 43.3242 115.95C43.4788 115.428 44.0129 115.147 44.6426 115.63C44.954 115.869 45.039 117.137 45.1123 117.716C45.1821 118.266 45.1108 118.999 45.0195 119.319C45.1844 119.278 45.8562 119.212 46.1113 119.099C46.451 118.95 46.9031 118.555 47.1045 118.375C47.5162 118.006 47.7393 117.227 48.4111 117.575C49.0831 117.923 48.5435 118.623 48.2627 119.064C47.6217 120.072 46.9594 120.382 46.1152 120.767C45.6152 120.996 45.0908 121.122 44.5264 121.312C44.4502 121.628 44.2744 122.127 43.9111 122.762C43.8938 122.792 43.8757 122.822 43.8574 122.851C45.1812 122.053 46.7658 121.432 47.0547 121.939C47.6859 123.05 46.7869 123.534 45.4863 123.987C44.3206 124.394 42.0272 126.195 42.0889 126.98C42.1509 127.765 43.4125 127.248 44.5391 127.068C45.9219 126.847 47.2216 126.288 48.2695 125.643C49.3175 124.999 50.8582 123.779 51.6172 123.021C52.3761 122.264 53.1212 122.145 53.5625 122.552C54.0035 122.958 53.0183 123.998 52.3184 124.818C51.5748 125.689 46.8363 128.981 45.9551 129.281C45.0734 129.581 41.0169 130.123 40.1348 130.052C39.253 129.98 37.0957 131.227 35.7588 131.759C35.3451 131.923 34.9596 132.187 34.624 132.477C34.3804 132.847 34.1726 133.19 34.0127 133.527C33.7442 134.408 33.0468 136.424 32.7822 136.84C32.5176 137.255 31.6288 136.869 31.2178 136.625C31.3447 135.966 31.9191 134.227 32.2656 133.358C32.8028 132.012 33.3974 131.011 32.6973 130.492C31.9969 129.973 30.0577 128 29.332 126.954C28.6064 125.908 28.3631 125.412 28.8027 124.95C29.269 124.46 29.7567 124.801 29.9424 124.86C30.3294 124.63 31.1689 124.065 31.4336 123.649C31.7642 123.129 32.0125 122.253 32.1387 121.407C32.1746 121.166 32.1177 120.746 31.9941 120.252C31.6396 120.567 31.0576 120.873 30.2305 121.262C28.5486 122.053 24.6681 123.145 23.4111 123.299C22.1547 123.453 22.1473 125.112 21.8105 127.162C21.5932 128.484 21.0092 131.05 20.6758 131.957C19.9826 131.972 18.5922 131.828 18.5732 131.126C18.5548 130.423 19.1911 127.431 19.5146 126.147C19.567 125.618 19.5653 125.047 19.5381 124.419C19.3372 123.821 19.0548 123.219 18.6621 122.722C17.3977 121.124 15.6466 118.063 14.498 117.533C13.4991 117.072 9.86673 114.352 8.36133 112.998C8.87435 111.809 9.39929 110.65 9.93555 109.513C10.3412 109.946 10.7801 110.358 11.252 110.736C12.5174 111.75 13.6987 113.278 14.3613 112.345C15.0239 111.413 13.5172 107.566 12.3721 106.243C12.1943 106.038 12.0276 105.836 11.875 105.64C12.3265 104.833 12.8122 104.035 13.3311 103.251C13.9721 103.908 14.6754 104.934 15.2432 105.973C15.2423 105.924 15.2421 105.874 15.2432 105.824C15.2655 104.78 15.4187 104.037 15.5596 103.592C15.0709 103.039 14.5848 102.568 14.1689 102.035C14.6349 101.384 15.1217 100.742 15.6299 100.112C15.9421 100.379 16.319 100.659 16.4336 100.768C16.5591 100.306 17.0165 99.3458 17.5137 98.7107C18.036 98.0435 19.0874 96.5273 19.6523 96.449C20.7945 96.291 21.2477 97.0147 21.0508 97.7713C20.8606 98.5013 19.5727 99.8897 18.748 101.274C18.7082 101.341 18.6709 101.409 18.6348 101.477C18.9244 101.782 18.8859 102.29 18.8965 102.693C18.913 103.32 18.8584 103.635 18.9346 104.136C19.0113 104.636 19.9779 105.429 21.2559 106.091C22.2668 106.614 22.3991 106.507 22.9385 106.068L22.957 106.053C23.7498 105.031 23.2788 103.887 24.1514 103.515C25.3984 102.985 25.1103 103.996 24.8896 105.193C24.7824 105.775 24.2377 106.777 24.249 107.216C24.2513 107.301 24.2626 107.381 24.2803 107.456C25.0569 106.744 25.9126 106.07 26.9043 105.418C27.644 104.931 28.7874 103.823 29.2803 102.803C29.7731 101.781 29.671 99.4646 29.6445 98.4588C29.6165 97.3946 29.689 95.8853 30.2627 94.9802ZM41.4521 124.952C41.1043 125.189 40.748 125.365 40.0967 125.601C38.998 125.999 38.6185 125.897 37.7861 125.816C36.9536 125.736 36.4237 126.388 35.8662 127.076C35.3107 127.761 35.1818 128.817 35.1221 129.993C35.1399 130.017 35.157 130.04 35.1738 130.064C35.936 129.807 36.7717 129.536 37.1387 129.311C38.0011 128.783 38.6748 127.996 39.2666 127.212C39.7138 126.619 40.6312 125.795 41.4521 124.952ZM36.6445 122.213C36.2023 122.357 35.8063 122.538 35.3135 122.733C34.7765 122.946 34.1604 123.244 33.5508 123.885C32.9289 124.538 32.5493 124.569 32.1006 125.274C31.7207 125.871 31.3564 125.958 31.9795 126.841C32.5255 127.614 32.6529 128.177 33.3857 128.658C33.4132 128.542 33.4411 128.424 33.4678 128.303C33.5312 128.018 34.1105 126.957 34.4316 126.423C34.7527 125.888 35.3494 125.843 35.5859 125.69C35.8477 125.521 36.685 125.028 36.6738 124.35C36.665 123.833 36.6943 122.748 36.6445 122.213ZM39.54 121.921C39.2186 121.851 38.8251 121.833 38.2021 121.901C38.3337 122.52 38.4316 123.149 38.5146 123.81C39.2908 123.926 39.995 123.856 40.6816 123.352C41.2169 122.959 42.0132 122.611 42.4082 122.02C42.3367 122.035 42.2616 122.048 42.1826 122.059C40.9352 122.238 40.699 122.173 39.54 121.921ZM16.665 110.27C17.0562 111.894 17.5804 113.563 17.6943 114.613C17.845 116.002 18.095 117.452 18.7725 118.714C19.0608 119.25 19.898 120.175 20.6533 121.03C20.6909 121.013 20.7289 120.996 20.7676 120.979C21.5711 119.475 22.2 118.07 22.0205 116.828C21.8406 115.583 21.6694 114.4 20.5752 113.916C19.4807 113.432 18.9323 113.295 17.8643 112.029C17.2308 111.279 16.9206 110.809 16.665 110.27ZM24.6797 110.239C24.2189 110.869 23.4471 112.237 23.0498 112.875C22.5303 113.709 23.2027 114.909 23.4014 115.303C23.5812 115.66 24.2895 116.133 24.29 117.022C24.2904 117.911 24.2193 119.636 24.085 120.036C24.0282 120.205 23.9733 120.373 23.9209 120.537C25.1925 120.454 25.7694 119.842 27.0254 119.263C28.4581 118.604 28.0706 118.242 28.0439 117.233C28.0125 116.042 27.5634 115.738 27.2783 114.489C26.9988 113.265 26.4559 112.462 25.9473 111.821C25.4799 111.232 25.1221 110.73 24.6797 110.239ZM30.4795 117.079C30.6697 117.534 30.8871 117.967 31.0342 118.232C31.0885 118.243 31.1655 118.248 31.2559 118.258C31.0234 117.794 30.7599 117.375 30.4795 117.079ZM31.6416 111.357C31.2634 111.769 30.9897 112.136 30.8799 112.4C30.5333 113.233 30.2569 114.132 30.1416 114.898H30.1475C30.8126 114.705 31.2454 113.127 31.5488 112.02L31.5508 112.012C31.5925 111.86 31.6206 111.626 31.6416 111.357ZM17.6631 105.957C17.7129 106.969 18.4424 107.96 18.8145 108.824C19.2917 109.932 20.1154 110.511 21.166 110.912C21.7619 110.149 22.352 109.436 22.9766 108.76C22.2547 108.24 21.7538 107.985 21.3027 107.846C19.6746 107.347 19.3321 107.263 17.916 106.166C17.8256 106.096 17.7415 106.026 17.6631 105.957Z" fill="#035079"/>
<path d="M80.6016 107.309C81.8841 106.596 83.8574 107.72 84.2852 108.006C84.6271 108.234 85.5378 109.354 85.3965 109.759L84.8301 110.082C84.9726 110.319 85.1719 110.453 84.8301 111.366C84.4025 112.507 82.2644 113.934 79.4141 113.649C79.3509 113.649 79.2913 113.66 79.2354 113.681C79.8367 113.94 80.3371 114.177 80.4414 114.281C80.7267 114.567 81.8673 116.564 82.0098 116.707C82.153 116.851 83.0073 118.277 82.7227 120.416C82.4376 122.556 81.582 123.413 81.4395 123.555C81.297 123.698 81.4393 122.699 81.2969 122.271C81.1543 121.843 80.7264 121.415 80.4414 120.702C80.1564 119.989 79.444 118.419 78.7314 118.134C78.3877 117.996 77.6816 117.055 77.0186 116.07C76.8783 116.21 76.7272 116.359 76.5645 116.515C76.5934 116.53 76.6214 116.545 76.6484 116.562C77.2185 117.133 78.4162 118.474 78.6445 119.273C78.9296 120.272 80.6391 123.126 79.6416 125.266C78.6439 127.407 76.6485 130.974 74.2256 131.687C71.8037 132.4 72.9429 131.26 73.0859 130.832C73.1999 130.49 73.1334 130.118 73.0859 129.975C73.181 129.5 73.4568 128.434 73.7988 127.977C74.2262 127.406 74.5107 126.265 74.3682 125.409C74.2259 124.553 75.0808 122.27 74.6533 121.699C74.3998 121.36 73.7663 119.905 73.2617 118.69C70.6757 119.304 66.5377 118.817 64.1191 118.49C63.5248 118.41 62.9745 118.331 62.46 118.256C62.3185 118.929 62.1382 119.656 61.9971 119.851C61.7324 120.217 60.981 121.176 60.3086 121.413C59.7707 121.602 59.0966 121.778 58.8271 121.843C58.6459 121.785 58.3634 121.515 58.6777 120.897C59.0711 120.124 59.964 119.659 59.6855 119.122C59.5842 118.927 59.4782 118.374 59.3916 117.745C59.2636 117.72 59.1374 117.695 59.0127 117.67C58.8712 117.873 58.7513 118.015 58.6768 118.053C58.3907 118.202 57.5465 118.793 57.1602 119.07C56.7143 119.378 55.6256 120.052 54.8359 120.281C53.8489 120.567 50.824 120.21 50.6797 119.716C50.5367 119.222 51.3941 119.343 51.7949 119.021C52.1955 118.699 53.0042 118.505 53.5264 117.323C53.6702 116.998 53.9041 116.655 54.1699 116.327C53.8243 116.061 53.7774 115.67 54.0449 114.933C54.615 113.364 57.608 110.653 63.4512 108.37C69.2941 106.087 74.9469 108.062 75.8027 108.49C76.6577 108.918 76.8231 109.455 77.1338 109.797C77.5615 109.226 79.3189 108.023 80.6016 107.309Z" fill="#035079"/>
<path d="M188.902 73.5076C191.478 73.6517 195.347 70.3554 204.685 72.0584C212.528 73.4888 216.675 74.5506 219.664 76.0965C220.304 75.7982 221.169 75.5492 221.422 74.9363C221.806 74.003 222.748 74.1802 224.214 74.3582C225.76 74.546 226.137 74.4117 226.737 74.8543C226.995 75.0441 226.948 75.547 226.098 75.7635C225.247 75.9798 224.69 75.9176 224.561 76.3504C224.431 76.7834 223.983 77.7507 223.676 78.0779C223.369 78.4049 225.051 78.3863 226.151 79.6082C227.251 80.8295 226.488 80.2326 227.448 79.9969C228.409 79.7611 228.636 79.3573 228.866 78.5877C229.097 77.8181 229.544 77.3756 230.312 77.6062C231.081 77.8372 230.789 78.1165 230.602 78.742C230.414 79.3675 230.717 80.4549 230.361 81.8162C230.168 82.5544 229.676 83.4884 229.246 84.2078C232.314 87.9765 233.786 93.2759 233.558 96.6717C233.284 100.732 231.289 105.115 229.43 106.078C227.57 107.04 226.603 106.068 226.041 104.274C224.971 100.859 215.143 96.5964 212.028 95.451C211.365 97.6637 212.868 98.5874 211.091 98.5779C209.668 98.5702 208.762 96.7939 208.486 95.907C206.114 98.4633 198.685 103.549 194.677 105.359C193.603 105.844 192.541 106.374 191.514 106.916C191.152 108.221 190.489 109.614 190.477 108.995C190.47 108.64 190.328 108.157 190.116 107.67C186.085 109.895 182.845 112.071 182.095 112.001C181.076 111.905 181.592 111.85 182.731 111.095C183.604 110.518 186.505 108.693 189.71 106.88C189.422 106.4 189.093 105.99 188.793 105.795C187.573 105.002 186.079 104.355 182.563 103.178C179.177 102.045 176.715 100.448 176.756 99.6746C176.378 99.8155 174.345 100.455 172.498 100.029C170.738 99.6228 170.251 99.1412 168.928 99.4383C167.869 99.676 167.297 100.243 167.02 100.442C167.396 100.112 168.014 99.4197 168.873 99.0955C169.947 98.6903 171.783 99.3702 172.631 99.5349C173.389 99.6822 174.652 99.6064 176.024 98.909C175.939 98.8577 175.864 98.8022 175.814 98.739C175.239 98.4307 174.175 96.8948 173.75 94.9969C173.315 93.0576 172.505 90.7408 171.704 89.6502C170.903 88.5598 170.14 87.9053 169.495 87.9217C168.803 87.9392 168.384 87.8161 169.364 87.4871C170.321 87.1661 173.246 86.5234 174.772 86.9002C176.798 87.4003 177.613 89.5142 178.284 90.864C178.487 91.2707 178.794 91.6067 179.147 91.8904C179.513 91.7673 180.339 91.4357 181.117 91.0476C182.114 90.5507 183.288 90.9147 183.941 91.3142C184.595 91.7138 184.889 92.2489 184.547 92.2166C184.204 92.1844 183.412 92.3625 183.278 92.8562C183.145 93.3504 183.33 94.129 184.123 94.8797C184.916 95.6302 185.873 95.5513 186.247 95.2488C186.621 94.9463 186.669 94.4439 186.521 94.1765C186.374 93.9092 186.654 93.6827 186.802 93.95C186.95 94.2178 188.301 95.4439 187.731 96.9099C187.18 98.3274 186.805 98.7353 187.307 99.8025C187.97 100.292 189.052 100.298 190.021 101.011C191.407 102.029 191.856 104.303 191.737 105.758C192.65 105.266 193.559 104.796 194.425 104.375C198.104 102.585 204.325 97.5166 206.925 94.9588C206.367 95.2458 204.837 95.1473 203.584 94.4353C202.018 93.5454 205.448 92.5828 205.948 92.3133C206.448 92.0434 204.761 88.758 202.969 86.699C200.8 84.2078 192.9 82.3644 189.979 80.2283C187.057 78.0923 184.202 75.5568 184.73 74.1424C185.259 72.7279 186.326 73.3633 188.902 73.5076Z" fill="#035079"/>
<path d="M110.258 101.92C110.339 101.99 110.94 102.584 111.352 102.993C111.421 102.991 111.503 102.994 111.599 103.006C112.142 103.071 113.847 103.085 115.33 103.119C115.261 102.991 115.202 102.803 115.143 102.725C115.048 102.601 115.023 102.407 115.321 102.6C115.62 102.793 116.15 102.834 116.341 102.944C116.425 102.993 116.494 103.076 116.544 103.155C117.086 103.178 117.507 103.209 117.688 103.253C118.404 103.427 118.89 103.705 119.056 104.121C119.221 104.537 118.206 105.015 117.461 105.075C117.238 105.093 116.927 105.101 116.562 105.091C116.482 105.216 116.325 105.298 116.038 105.345C115.728 105.396 115.238 105.381 115.038 105.357C115.06 105.184 115.336 105.19 115.418 105.095C115.441 105.067 115.462 105.04 115.479 105.013C115.448 105.01 115.417 105.006 115.387 105.003C114.491 104.895 113.49 104.535 112.714 104.216C112.451 104.242 111.983 104.261 111.714 104.166C111.34 104.033 111.564 103.971 111.618 103.889C111.64 103.856 111.692 103.826 111.748 103.801C111.651 103.758 111.571 103.724 111.512 103.701C111.441 103.674 111.372 103.637 111.311 103.595C111.269 103.618 111.222 103.641 111.17 103.66C110.951 103.739 110.002 103.74 109.555 103.73C109.51 103.739 109.481 103.703 109.716 103.485C110.01 103.212 110.289 103.069 110.514 103.008C110.023 102.773 110.14 101.819 110.258 101.92Z" fill="#035079"/>
<path d="M91.498 98.201C91.5992 98.3042 92.3428 99.1667 92.8525 99.7605C92.9465 99.7649 93.056 99.7789 93.1826 99.8045C93.9052 99.9503 96.1961 100.152 98.1855 100.356C98.1064 100.177 98.0469 99.9198 97.9756 99.8084C97.8617 99.6313 97.8479 99.3677 98.2285 99.659C98.6092 99.9502 99.3188 100.062 99.5625 100.23C99.6707 100.305 99.7533 100.424 99.8115 100.535C100.538 100.623 101.1 100.71 101.34 100.789C102.283 101.1 102.907 101.526 103.084 102.103C103.216 102.533 102.464 102.939 101.655 103.118C101.799 103.23 101.949 103.347 102.078 103.449C102.136 103.44 102.205 103.435 102.286 103.435C102.746 103.437 104.174 103.283 105.417 103.167C105.347 103.066 105.279 102.916 105.222 102.856C105.131 102.762 105.09 102.602 105.358 102.734C105.627 102.866 106.075 102.849 106.245 102.923C106.32 102.955 106.385 103.018 106.435 103.079C106.89 103.045 107.245 103.029 107.401 103.049C108.017 103.124 108.45 103.31 108.629 103.641C108.807 103.973 108.006 104.471 107.389 104.595C107.204 104.631 106.944 104.667 106.639 104.694C106.584 104.807 106.461 104.891 106.226 104.959C105.971 105.031 105.56 105.067 105.391 105.066C105.392 104.919 105.623 104.898 105.683 104.81C105.699 104.785 105.713 104.76 105.725 104.736C105.699 104.736 105.673 104.736 105.647 104.736C104.888 104.734 104.016 104.53 103.336 104.339C103.119 104.387 102.73 104.448 102.496 104.394C102.171 104.32 102.352 104.246 102.389 104.173C102.404 104.143 102.444 104.111 102.488 104.085C102.403 104.059 102.333 104.039 102.281 104.025C102.219 104.009 102.158 103.985 102.103 103.957C102.07 103.98 102.033 104.003 101.991 104.024C101.816 104.112 101.023 104.205 100.648 104.241C100.612 104.253 100.583 104.226 100.759 104.02C100.978 103.763 101.197 103.617 101.379 103.544C101.225 103.491 101.128 103.354 101.069 103.204C100.991 103.21 100.914 103.215 100.839 103.215C100.538 103.215 100.118 103.191 99.6299 103.137C99.5082 103.298 99.2891 103.392 98.8975 103.425C98.4752 103.46 97.8182 103.386 97.5527 103.333C97.6007 103.103 97.9717 103.141 98.0918 103.021C98.126 102.987 98.1562 102.951 98.1816 102.918C98.141 102.91 98.0995 102.902 98.0586 102.893C96.8669 102.653 95.561 102.061 94.5527 101.55C94.1968 101.557 93.566 101.532 93.2148 101.375C92.7264 101.156 93.0345 101.097 93.1152 100.993C93.1482 100.951 93.2222 100.915 93.2998 100.887C93.1735 100.82 93.0695 100.765 92.9922 100.728C92.8997 100.684 92.8122 100.627 92.7334 100.565C92.6749 100.592 92.6094 100.617 92.5371 100.636C92.2351 100.72 90.9594 100.618 90.3594 100.557C90.2986 100.565 90.2621 100.514 90.6016 100.246C91.0265 99.9107 91.4162 99.7483 91.7246 99.6902C91.0897 99.3214 91.3511 98.052 91.498 98.201Z" fill="#035079"/>
<path d="M134.155 102.859C134.064 102.777 134.017 102.631 134.275 102.737C134.534 102.843 134.951 102.798 135.114 102.856C135.187 102.882 135.251 102.937 135.301 102.991C135.724 102.931 136.054 102.894 136.201 102.902C136.78 102.934 137.196 103.08 137.384 103.379C137.571 103.677 136.855 104.193 136.286 104.346C136.116 104.392 135.876 104.442 135.593 104.486C135.548 104.595 135.439 104.681 135.223 104.759C134.99 104.842 134.609 104.902 134.451 104.912C134.443 104.774 134.658 104.739 134.707 104.653C134.721 104.629 134.733 104.605 134.742 104.582C134.718 104.584 134.694 104.585 134.67 104.587C133.961 104.632 133.134 104.497 132.487 104.361C132.288 104.419 131.929 104.501 131.707 104.466C131.399 104.416 131.564 104.336 131.594 104.265C131.606 104.237 131.641 104.205 131.681 104.178C131.599 104.159 131.533 104.144 131.483 104.135C131.425 104.124 131.367 104.105 131.313 104.082C131.285 104.106 131.251 104.129 131.213 104.151C131.055 104.244 130.32 104.381 129.973 104.437C129.94 104.451 129.91 104.427 130.062 104.224C130.25 103.971 130.446 103.821 130.611 103.741C130.198 103.629 130.153 102.875 130.258 102.935C130.331 102.978 130.88 103.352 131.258 103.609C131.311 103.597 131.376 103.589 131.451 103.584C131.881 103.556 133.203 103.323 134.356 103.136C134.285 103.047 134.212 102.911 134.155 102.859Z" fill="#035079"/>
<path d="M122.94 101.114C123.01 101.17 123.519 101.632 123.869 101.951C123.926 101.947 123.993 101.946 124.071 101.952C124.516 101.986 125.908 101.938 127.119 101.913C127.058 101.811 127.003 101.661 126.952 101.599C126.871 101.501 126.844 101.344 127.094 101.491C127.344 101.638 127.778 101.653 127.938 101.736C128.008 101.773 128.066 101.838 128.109 101.9C128.552 101.899 128.897 101.91 129.047 101.939C129.637 102.056 130.043 102.267 130.192 102.6C130.341 102.934 129.532 103.359 128.926 103.434C128.745 103.457 128.491 103.473 128.193 103.477C128.132 103.583 128.007 103.655 127.774 103.704C127.71 103.717 127.636 103.727 127.56 103.735C127.315 103.948 126.942 104.146 126.616 104.232C126.434 104.28 126.178 104.333 125.875 104.378C125.827 104.494 125.709 104.584 125.478 104.666C125.228 104.754 124.821 104.814 124.651 104.824C124.644 104.677 124.873 104.641 124.927 104.55C124.942 104.524 124.955 104.499 124.965 104.474C124.939 104.476 124.913 104.478 124.887 104.479C124.129 104.523 123.247 104.372 122.557 104.222C122.343 104.284 121.958 104.368 121.721 104.329C121.391 104.274 121.568 104.19 121.601 104.114C121.614 104.083 121.653 104.05 121.695 104.021C121.608 104 121.537 103.984 121.484 103.973C121.421 103.961 121.359 103.941 121.302 103.916C121.271 103.941 121.236 103.967 121.195 103.99C121.026 104.088 120.239 104.23 119.867 104.288C119.832 104.302 119.801 104.276 119.964 104.06C120.168 103.791 120.378 103.632 120.555 103.548C120.113 103.426 120.071 102.617 120.183 102.683C120.261 102.73 120.846 103.133 121.247 103.411C121.304 103.399 121.373 103.39 121.453 103.386C121.906 103.359 123.289 103.125 124.511 102.934C124.399 102.932 124.291 102.919 124.207 102.893C123.898 102.798 124.078 102.741 124.119 102.673C124.136 102.645 124.177 102.617 124.222 102.595C124.141 102.563 124.075 102.539 124.025 102.522C123.966 102.502 123.909 102.475 123.857 102.443C123.824 102.463 123.787 102.483 123.745 102.501C123.57 102.573 122.795 102.607 122.43 102.615C122.394 102.624 122.369 102.594 122.553 102.409C122.783 102.176 123.005 102.05 123.187 101.992C122.778 101.817 122.841 101.036 122.94 101.114Z" fill="#035079"/>
<path d="M144.243 102.985L144.354 103.022C144.505 103.06 144.704 103.043 144.789 103.073C144.832 103.088 144.871 103.121 144.9 103.153C145.151 103.117 145.347 103.095 145.434 103.099C145.777 103.118 146.023 103.206 146.134 103.383C146.244 103.559 145.82 103.864 145.483 103.955C145.383 103.982 145.24 104.012 145.072 104.038C145.046 104.102 144.981 104.154 144.854 104.2C144.716 104.25 144.49 104.284 144.396 104.29C144.392 104.209 144.519 104.188 144.549 104.137C144.557 104.123 144.564 104.108 144.569 104.095C144.555 104.096 144.541 104.097 144.526 104.097C144.107 104.124 143.617 104.044 143.234 103.964C143.116 103.998 142.903 104.046 142.771 104.025C142.59 103.996 142.686 103.949 142.704 103.907C142.711 103.89 142.733 103.871 142.757 103.855C142.709 103.844 142.669 103.835 142.64 103.83C142.605 103.823 142.57 103.812 142.538 103.799C142.521 103.813 142.502 103.827 142.479 103.84C142.386 103.895 141.95 103.976 141.744 104.01C141.725 104.017 141.709 104.002 141.798 103.884C141.91 103.733 142.025 103.645 142.123 103.597C141.878 103.531 141.852 103.084 141.914 103.12C141.958 103.146 142.283 103.367 142.506 103.519C142.538 103.512 142.576 103.507 142.621 103.504C142.876 103.487 143.659 103.349 144.341 103.239C144.298 103.186 144.256 103.105 144.222 103.074C144.175 103.031 144.147 102.96 144.243 102.985Z" fill="#035079"/>
<path d="M149.782 101.963C149.817 101.999 150.072 102.298 150.247 102.505C150.28 102.506 150.318 102.511 150.361 102.52C150.611 102.572 151.403 102.647 152.091 102.721C152.064 102.659 152.043 102.57 152.019 102.531C151.98 102.47 151.976 102.38 152.106 102.481C152.238 102.583 152.483 102.623 152.567 102.681C152.604 102.708 152.633 102.749 152.652 102.787C152.903 102.819 153.098 102.85 153.181 102.878C153.506 102.987 153.721 103.136 153.781 103.336C153.841 103.536 153.352 103.717 153.003 103.716C152.899 103.715 152.754 103.706 152.585 103.686C152.543 103.742 152.467 103.773 152.331 103.784C152.185 103.795 151.958 103.769 151.866 103.75C151.883 103.671 152.011 103.684 152.053 103.643C152.065 103.632 152.075 103.619 152.084 103.607C152.07 103.604 152.056 103.602 152.042 103.599C151.63 103.514 151.179 103.306 150.831 103.127C150.708 103.129 150.49 103.119 150.369 103.064C150.201 102.988 150.308 102.967 150.336 102.931C150.348 102.917 150.373 102.905 150.399 102.895C150.356 102.872 150.32 102.853 150.293 102.84C150.261 102.824 150.231 102.805 150.204 102.783C150.184 102.792 150.161 102.801 150.136 102.807C150.03 102.835 149.59 102.798 149.383 102.776C149.362 102.778 149.351 102.76 149.468 102.669C149.615 102.554 149.751 102.498 149.857 102.478C149.639 102.35 149.732 101.911 149.782 101.963Z" fill="#035079"/>
<path d="M143.788 101.614C143.734 101.565 143.707 101.479 143.859 101.542C144.013 101.605 144.26 101.578 144.356 101.612C144.399 101.627 144.437 101.66 144.467 101.692C144.717 101.656 144.913 101.635 145 101.639C145.343 101.658 145.589 101.745 145.7 101.922C145.811 102.099 145.386 102.403 145.05 102.494C144.949 102.521 144.807 102.552 144.64 102.578C144.613 102.642 144.549 102.693 144.421 102.739C144.283 102.789 144.058 102.823 143.964 102.829C143.96 102.748 144.086 102.727 144.115 102.677C144.124 102.662 144.13 102.648 144.136 102.635C144.122 102.636 144.108 102.637 144.094 102.637C143.674 102.664 143.184 102.584 142.802 102.504C142.684 102.538 142.47 102.586 142.339 102.565C142.157 102.536 142.253 102.489 142.271 102.447C142.279 102.43 142.3 102.411 142.323 102.394C142.275 102.383 142.236 102.374 142.207 102.369C142.172 102.362 142.137 102.351 142.105 102.338C142.088 102.352 142.068 102.366 142.046 102.38C141.952 102.435 141.517 102.515 141.312 102.549C141.292 102.556 141.276 102.542 141.365 102.423C141.477 102.273 141.592 102.184 141.689 102.136C141.445 102.07 141.419 101.624 141.48 101.659C141.523 101.684 141.85 101.906 142.073 102.058C142.105 102.051 142.143 102.047 142.188 102.044C142.442 102.027 143.225 101.889 143.908 101.778C143.866 101.725 143.822 101.645 143.788 101.614Z" fill="#035079"/>
<path d="M136.491 100.553C136.412 100.481 136.37 100.354 136.595 100.446C136.819 100.538 137.181 100.5 137.322 100.551C137.385 100.573 137.441 100.62 137.484 100.667C137.851 100.615 138.137 100.582 138.265 100.589C138.767 100.616 139.129 100.744 139.291 101.003C139.453 101.262 138.831 101.708 138.338 101.842C138.191 101.881 137.983 101.924 137.737 101.963C137.699 102.057 137.603 102.132 137.416 102.2C137.214 102.272 136.884 102.323 136.747 102.332C136.74 102.213 136.926 102.183 136.969 102.108C136.981 102.087 136.991 102.066 136.999 102.046C136.978 102.047 136.957 102.049 136.937 102.051C136.322 102.09 135.605 101.972 135.045 101.854C134.872 101.905 134.56 101.976 134.367 101.945C134.101 101.902 134.242 101.834 134.269 101.772C134.279 101.747 134.311 101.719 134.346 101.695C134.275 101.679 134.216 101.666 134.174 101.658C134.123 101.648 134.073 101.632 134.026 101.612C134.001 101.633 133.972 101.653 133.939 101.673C133.802 101.753 133.166 101.872 132.864 101.921C132.836 101.932 132.811 101.912 132.941 101.737C133.105 101.517 133.275 101.386 133.418 101.317C133.059 101.22 133.02 100.565 133.111 100.619C133.174 100.656 133.651 100.98 133.979 101.203C134.025 101.193 134.08 101.185 134.146 101.18C134.518 101.157 135.665 100.955 136.665 100.793C136.603 100.716 136.541 100.598 136.491 100.553Z" fill="#035079"/>
<path d="M108.218 98.7312C108.28 98.7973 108.731 99.3454 109.042 99.7224C109.101 99.7264 109.17 99.7361 109.249 99.7537C109.699 99.8539 111.125 100.009 112.364 100.162C112.317 100.049 112.283 99.8876 112.24 99.8172C112.171 99.7052 112.166 99.5406 112.4 99.7273C112.634 99.9138 113.076 99.9931 113.226 100.101C113.292 100.15 113.342 100.225 113.377 100.295C113.829 100.359 114.18 100.419 114.328 100.471C114.913 100.677 115.297 100.952 115.4 101.314C115.504 101.677 114.614 101.991 113.984 101.979C113.796 101.976 113.535 101.955 113.231 101.916C113.153 102.014 113.015 102.07 112.771 102.086C112.506 102.102 112.097 102.048 111.932 102.011C111.965 101.869 112.196 101.897 112.272 101.824C112.294 101.803 112.314 101.781 112.33 101.761C112.305 101.755 112.278 101.75 112.253 101.744C111.512 101.579 110.704 101.192 110.081 100.86C109.859 100.86 109.465 100.837 109.248 100.734C108.947 100.592 109.14 100.559 109.191 100.495C109.213 100.469 109.259 100.448 109.308 100.431C109.23 100.388 109.166 100.352 109.118 100.328C109.061 100.299 109.006 100.263 108.958 100.223C108.921 100.239 108.88 100.254 108.835 100.265C108.645 100.314 107.85 100.234 107.477 100.188C107.438 100.192 107.416 100.16 107.632 99.9969C107.901 99.793 108.147 99.6972 108.34 99.6648C107.948 99.4265 108.128 98.636 108.218 98.7312Z" fill="#035079"/>
<path d="M122.104 98.2625C122.008 98.1734 121.957 98.017 122.233 98.1326C122.51 98.2484 122.957 98.2041 123.131 98.2674C123.208 98.2955 123.277 98.354 123.33 98.4119C123.783 98.3502 124.138 98.3124 124.295 98.322C124.915 98.3603 125.36 98.5196 125.559 98.8406C125.757 99.1616 124.985 99.7083 124.375 99.8689C124.193 99.9169 123.936 99.9692 123.633 100.014C123.585 100.131 123.467 100.223 123.235 100.304C122.986 100.393 122.577 100.453 122.407 100.463C122.4 100.315 122.63 100.28 122.684 100.188C122.699 100.162 122.712 100.136 122.722 100.112C122.696 100.114 122.67 100.114 122.644 100.116C121.885 100.16 121.001 100.01 120.31 99.8601C120.095 99.9213 119.709 100.006 119.472 99.9666C119.142 99.9117 119.319 99.8265 119.352 99.7508C119.365 99.7201 119.404 99.687 119.446 99.658C119.359 99.6372 119.288 99.6203 119.235 99.6101C119.172 99.5979 119.11 99.5776 119.053 99.5525C119.022 99.5778 118.986 99.6032 118.945 99.6267C118.776 99.7251 117.989 99.8662 117.616 99.9246C117.581 99.9389 117.55 99.9139 117.713 99.698C117.917 99.4278 118.127 99.2674 118.305 99.1834C117.862 99.0611 117.819 98.252 117.932 98.3181C118.01 98.3648 118.596 98.7684 118.998 99.0467C119.055 99.0345 119.124 99.0259 119.204 99.0213C119.664 98.9948 121.082 98.7533 122.318 98.5613C122.242 98.4651 122.165 98.3184 122.104 98.2625Z" fill="#035079"/>
<path fill-rule="evenodd" clip-rule="evenodd" d="M86.4199 92.4646C85.662 92.0366 85.9546 90.5279 86.1309 90.7029C86.2529 90.8246 87.1445 91.8359 87.7568 92.532C87.8685 92.5358 87.9997 92.5504 88.1504 92.5789C89.0092 92.7413 91.7257 92.9482 94.0859 93.1619C93.9894 92.95 93.9164 92.6453 93.8301 92.5144C93.6926 92.3062 93.6718 91.995 94.127 92.3347C94.5822 92.6745 95.4245 92.7968 95.7158 92.9929C95.8452 93.0801 95.945 93.2196 96.0156 93.3504C96.8772 93.4448 97.5449 93.5387 97.8301 93.6287C97.9499 93.6665 98.0658 93.7067 98.1768 93.7478C98.2772 93.6996 98.3722 93.663 98.4609 93.6375C97.8456 93.3534 97.9762 92.1643 98.124 92.2879C98.2259 92.374 98.9841 93.1024 99.5039 93.6043C99.5908 93.6002 99.6928 93.6034 99.8115 93.616C100.488 93.6876 102.611 93.6753 104.457 93.6912C104.369 93.5328 104.292 93.3009 104.217 93.2049C104.097 93.0519 104.062 92.8121 104.437 93.0467C104.812 93.2814 105.473 93.3231 105.712 93.4568C105.818 93.5163 105.905 93.6176 105.968 93.7146C106.643 93.7332 107.168 93.7644 107.395 93.8162C108.289 94.0203 108.899 94.3586 109.111 94.8738C109.323 95.389 108.069 96.0006 107.143 96.0886C106.866 96.115 106.479 96.1295 106.025 96.1228C105.927 96.2807 105.734 96.3862 105.377 96.45C104.992 96.5187 104.382 96.5085 104.133 96.4822C104.157 96.266 104.502 96.269 104.602 96.1482C104.63 96.1137 104.654 96.0788 104.675 96.0457C104.637 96.0419 104.599 96.039 104.561 96.0349C103.444 95.9168 102.192 95.4848 101.221 95.1013C100.894 95.1393 100.312 95.1707 99.9756 95.0564C99.9291 95.0406 99.8901 95.0249 99.8574 95.0105C99.8799 95.0599 99.9005 95.1104 99.917 95.1619C100.135 95.8433 98.4661 96.4948 97.2715 96.5105C96.9144 96.5152 96.4174 96.4934 95.8379 96.4373C95.6959 96.6289 95.4381 96.7427 94.9746 96.7869C94.4747 96.8345 93.6945 96.7578 93.3789 96.698C93.4325 96.4241 93.8735 96.4641 94.0137 96.3201C94.0536 96.279 94.0886 96.2373 94.1182 96.197C94.0699 96.1883 94.0212 96.1799 93.9727 96.1707C92.5566 95.9026 90.9993 95.22 89.7969 94.6277C89.375 94.642 88.6282 94.6205 88.21 94.4392C87.6283 94.1869 87.9926 94.1134 88.0869 93.989C88.1254 93.9386 88.2122 93.8952 88.3037 93.8611C88.153 93.7828 88.0287 93.7195 87.9365 93.6765C87.8264 93.6252 87.7221 93.5596 87.6279 93.4871C87.559 93.5192 87.4818 93.5493 87.3965 93.574C87.04 93.6772 85.5266 93.5761 84.8145 93.5125C84.7426 93.5224 84.6981 93.4608 85.0967 93.1385C85.5954 92.7351 86.0553 92.5379 86.4199 92.4646ZM99.375 94.4002C99.5276 94.5288 99.6534 94.6666 99.75 94.8152C99.7837 94.7819 99.8296 94.7492 99.8516 94.7146C99.8782 94.673 99.9428 94.6336 100.012 94.6013C99.8901 94.5502 99.79 94.5096 99.7158 94.4822C99.627 94.4493 99.5417 94.4047 99.4639 94.3543C99.4362 94.3701 99.4065 94.3854 99.375 94.4002Z" fill="#035079"/>
<path d="M66.0039 89.489C65.0878 88.8021 65.7143 86.8715 65.915 87.1297C66.053 87.3083 67.0493 88.7823 67.7324 89.7976C67.8771 89.8211 68.0447 89.8612 68.2363 89.9236C69.3266 90.2789 72.8277 91.0015 75.8643 91.6726C75.7731 91.3784 75.7268 90.9653 75.6357 90.7791C75.4912 90.4831 75.5162 90.0715 76.0527 90.5926C76.5895 91.1135 77.6647 91.4139 78.0117 91.7195C78.166 91.8556 78.2743 92.0554 78.3447 92.239C79.4507 92.5056 80.3041 92.7388 80.6602 92.9041C82.0629 93.5554 82.9515 94.3303 83.124 95.2605C83.2962 96.1908 81.018 96.7696 79.4609 96.5926C78.9957 96.5396 78.3529 96.4289 77.6084 96.2595C77.3924 96.4881 77.0379 96.5957 76.4268 96.5769C75.7684 96.5566 74.766 96.3266 74.3652 96.1961C74.4796 95.8452 75.0468 95.9711 75.2529 95.8054C75.3122 95.7576 75.3648 95.7083 75.4102 95.6599C75.3486 95.6404 75.2865 95.6205 75.2246 95.6004C73.427 95.0146 71.5142 93.8633 70.0469 92.8875C69.496 92.8366 68.5251 92.6844 68.0098 92.3767C67.2945 91.9495 67.7806 91.9139 67.9238 91.7664C67.9823 91.7063 68.1022 91.6622 68.2275 91.6326C68.0439 91.5046 67.8924 91.4016 67.7793 91.3299C67.6445 91.2444 67.5198 91.1407 67.4092 91.0301C67.3138 91.061 67.2075 91.0878 67.0918 91.1062C66.6104 91.1824 64.6591 90.7997 63.7432 90.5984C63.6478 90.5997 63.5999 90.5124 64.1719 90.1551C64.887 89.7082 65.5174 89.5248 66.0039 89.489Z" fill="#035079"/>
<path d="M107.267 90.031C107.343 90.1067 107.902 90.7396 108.285 91.1756C108.355 91.178 108.437 91.188 108.531 91.2058C109.069 91.3075 110.769 91.4373 112.246 91.5711C112.186 91.4386 112.14 91.2479 112.086 91.1658C112 91.0355 111.987 90.8408 112.271 91.0535C112.556 91.2661 113.084 91.3419 113.267 91.4646C113.347 91.5192 113.41 91.6065 113.454 91.6883C113.993 91.7474 114.411 91.8067 114.59 91.8631C115.292 92.0851 115.759 92.3957 115.896 92.822C116.032 93.2485 114.988 93.6569 114.24 93.6668C114.017 93.6697 113.706 93.655 113.344 93.6199C113.255 93.7399 113.093 93.8119 112.803 93.8396C112.49 93.8694 112.003 93.8213 111.805 93.784C111.838 93.6126 112.113 93.6378 112.201 93.5476C112.226 93.5219 112.248 93.4957 112.267 93.4705C112.237 93.465 112.206 93.4596 112.176 93.4539C111.289 93.2861 110.314 92.8588 109.562 92.4881C109.297 92.497 108.83 92.4834 108.568 92.3699C108.205 92.2121 108.432 92.1664 108.491 92.0886C108.515 92.057 108.57 92.0299 108.627 92.0086C108.533 91.9596 108.455 91.9192 108.397 91.8924C108.329 91.8602 108.263 91.8196 108.204 91.7742C108.161 91.7943 108.112 91.8134 108.059 91.8289C107.835 91.8933 106.888 91.8296 106.442 91.7898C106.398 91.7957 106.371 91.7575 106.62 91.5564C106.932 91.3042 107.219 91.1805 107.447 91.1345C106.974 90.8667 107.156 89.9232 107.267 90.031Z" fill="#035079"/>
<path d="M89.3555 83.2713C89.6871 83.4334 90.0236 83.5639 90.1738 83.6951C90.2869 83.7939 90.3653 83.9396 90.417 84.073C91.2286 84.267 91.855 84.4372 92.1162 84.5574C93.1452 85.0312 93.7971 85.5946 93.9238 86.2713C94.0501 86.948 92.3787 87.3698 91.2363 87.241C90.8949 87.2025 90.4234 87.1211 89.877 86.9978C89.7184 87.1639 89.4579 87.242 89.0098 87.2283C88.5268 87.2135 87.7921 87.0469 87.498 86.9519C87.5818 86.6967 87.9969 86.7879 88.1484 86.6677C88.1916 86.6332 88.2305 86.5972 88.2637 86.5623C88.2187 86.5481 88.1732 86.5339 88.1279 86.5193C86.8083 86.0929 85.4039 85.2539 84.3271 84.5437C83.9228 84.5066 83.2116 84.3962 82.834 84.1726C82.3093 83.8619 82.6654 83.8356 82.7705 83.7283C82.8132 83.6846 82.9014 83.6532 82.9932 83.6316C82.8588 83.5387 82.7478 83.464 82.665 83.4119C82.5994 83.3706 82.5387 83.3216 82.4805 83.2713H86.8018C87.3983 83.3996 88.0098 83.5311 88.5977 83.6599C88.561 83.5423 88.5336 83.399 88.5059 83.2713H89.3555Z" fill="#035079"/>
<path d="M107.166 83.2713C107.235 83.3094 107.295 83.345 107.338 83.3826C107.451 83.4815 107.529 83.6271 107.581 83.7605C108.393 83.9545 109.019 84.1247 109.28 84.2449C110.309 84.7186 110.96 85.2822 111.087 85.9588C111.213 86.6355 109.543 87.0572 108.4 86.9285C108.059 86.89 107.587 86.8086 107.04 86.6853C106.882 86.8513 106.622 86.9295 106.174 86.9158C105.691 86.901 104.956 86.7335 104.662 86.6385C104.746 86.3839 105.161 86.4755 105.312 86.3552C105.356 86.3207 105.395 86.2848 105.428 86.2498C105.383 86.2356 105.337 86.2214 105.292 86.2068C103.972 85.7805 102.568 84.9414 101.491 84.2312C101.087 84.1941 100.376 84.0837 99.998 83.8601C99.4729 83.5491 99.8297 83.5232 99.9346 83.4158C99.9773 83.3721 100.065 83.3407 100.157 83.3191C100.133 83.3023 100.109 83.2869 100.086 83.2713H105.406C105.525 83.2972 105.644 83.3227 105.762 83.3484C105.754 83.324 105.748 83.2976 105.741 83.2713H107.166Z" fill="#035079"/>
<path d="M278.291 176.798C278.291 178.581 276.848 180.025 275.068 180.025C273.288 180.025 271.845 178.581 271.845 176.798C271.845 175.016 273.288 173.572 275.068 173.572C276.848 173.572 278.291 175.016 278.291 176.798Z" fill="#1D9BA6"/>
<path d="M286.17 176.798C286.17 178.581 284.727 180.025 282.947 180.025C281.167 180.025 279.723 178.581 279.723 176.798C279.723 175.016 281.167 173.572 282.947 173.572C284.727 173.572 286.17 175.016 286.17 176.798Z" fill="#1D9BA6"/>
<path d="M294.047 176.798C294.047 178.581 292.604 180.025 290.824 180.025C289.044 180.025 287.601 178.581 287.601 176.798C287.601 175.016 289.044 173.572 290.824 173.572C292.604 173.572 294.047 175.016 294.047 176.798Z" fill="#1D9BA6"/>
</svg>
